<svg xmlns="http://www.w3.org/2000/svg" viewBox="0 0 800 600" width="800" height="600" role="img" aria-label="예시 이미지"><defs>
  <linearGradient id="b17" x1="0" y1="0" x2=".2" y2="1">
    <stop offset="0" stop-color="#EDEFF1"/><stop offset="1" stop-color="#A3ABB4" stop-opacity=".55"/>
  </linearGradient>
  <linearGradient id="l17" x1="0" y1="0" x2=".9" y2="1">
    <stop offset="0" stop-color="#ffffff" stop-opacity=".46"/>
    <stop offset=".62" stop-color="#ffffff" stop-opacity=".04"/>
    <stop offset="1" stop-color="#20262C" stop-opacity=".2"/>
  </linearGradient>
</defs><rect width="800" height="600" fill="url(#b17)"/><rect width="800" height="600" fill="#EDEFF1"/><line x1="0" y1="0" x2="0" y2="600" stroke="#20262C" stroke-opacity=".09" stroke-width="1"/><line x1="36" y1="0" x2="36" y2="600" stroke="#20262C" stroke-opacity=".09" stroke-width="1"/><line x1="72" y1="0" x2="72" y2="600" stroke="#20262C" stroke-opacity=".09" stroke-width="1"/><line x1="108" y1="0" x2="108" y2="600" stroke="#20262C" stroke-opacity=".09" stroke-width="1"/><line x1="144" y1="0" x2="144" y2="600" stroke="#20262C" stroke-opacity=".09" stroke-width="1"/><line x1="180" y1="0" x2="180" y2="600" stroke="#20262C" stroke-opacity=".09" stroke-width="1"/><line x1="216" y1="0" x2="216" y2="600" stroke="#20262C" stroke-opacity=".09" stroke-width="1"/><line x1="252" y1="0" x2="252" y2="600" stroke="#20262C" stroke-opacity=".09" stroke-width="1"/><line x1="288" y1="0" x2="288" y2="600" stroke="#20262C" stroke-opacity=".09" stroke-width="1"/><line x1="324" y1="0" x2="324" y2="600" stroke="#20262C" stroke-opacity=".09" stroke-width="1"/><line x1="360" y1="0" x2="360" y2="600" stroke="#20262C" stroke-opacity=".09" stroke-width="1"/><line x1="396" y1="0" x2="396" y2="600" stroke="#20262C" stroke-opacity=".09" stroke-width="1"/><line x1="432" y1="0" x2="432" y2="600" stroke="#20262C" stroke-opacity=".09" stroke-width="1"/><line x1="468" y1="0" x2="468" y2="600" stroke="#20262C" stroke-opacity=".09" stroke-width="1"/><line x1="504" y1="0" x2="504" y2="600" stroke="#20262C" stroke-opacity=".09" stroke-width="1"/><line x1="540" y1="0" x2="540" y2="600" stroke="#20262C" stroke-opacity=".09" stroke-width="1"/><line x1="576" y1="0" x2="576" y2="600" stroke="#20262C" stroke-opacity=".09" stroke-width="1"/><line x1="612" y1="0" x2="612" y2="600" stroke="#20262C" stroke-opacity=".09" stroke-width="1"/><line x1="648" y1="0" x2="648" y2="600" stroke="#20262C" stroke-opacity=".09" stroke-width="1"/><line x1="684" y1="0" x2="684" y2="600" stroke="#20262C" stroke-opacity=".09" stroke-width="1"/><line x1="720" y1="0" x2="720" y2="600" stroke="#20262C" stroke-opacity=".09" stroke-width="1"/><line x1="756" y1="0" x2="756" y2="600" stroke="#20262C" stroke-opacity=".09" stroke-width="1"/><line x1="792" y1="0" x2="792" y2="600" stroke="#20262C" stroke-opacity=".09" stroke-width="1"/><line x1="0" y1="0" x2="800" y2="0" stroke="#20262C" stroke-opacity=".09" stroke-width="1"/><line x1="0" y1="36" x2="800" y2="36" stroke="#20262C" stroke-opacity=".09" stroke-width="1"/><line x1="0" y1="72" x2="800" y2="72" stroke="#20262C" stroke-opacity=".09" stroke-width="1"/><line x1="0" y1="108" x2="800" y2="108" stroke="#20262C" stroke-opacity=".09" stroke-width="1"/><line x1="0" y1="144" x2="800" y2="144" stroke="#20262C" stroke-opacity=".09" stroke-width="1"/><line x1="0" y1="180" x2="800" y2="180" stroke="#20262C" stroke-opacity=".09" stroke-width="1"/><line x1="0" y1="216" x2="800" y2="216" stroke="#20262C" stroke-opacity=".09" stroke-width="1"/><line x1="0" y1="252" x2="800" y2="252" stroke="#20262C" stroke-opacity=".09" stroke-width="1"/><line x1="0" y1="288" x2="800" y2="288" stroke="#20262C" stroke-opacity=".09" stroke-width="1"/><line x1="0" y1="324" x2="800" y2="324" stroke="#20262C" stroke-opacity=".09" stroke-width="1"/><line x1="0" y1="360" x2="800" y2="360" stroke="#20262C" stroke-opacity=".09" stroke-width="1"/><line x1="0" y1="396" x2="800" y2="396" stroke="#20262C" stroke-opacity=".09" stroke-width="1"/><line x1="0" y1="432" x2="800" y2="432" stroke="#20262C" stroke-opacity=".09" stroke-width="1"/><line x1="0" y1="468" x2="800" y2="468" stroke="#20262C" stroke-opacity=".09" stroke-width="1"/><line x1="0" y1="504" x2="800" y2="504" stroke="#20262C" stroke-opacity=".09" stroke-width="1"/><line x1="0" y1="540" x2="800" y2="540" stroke="#20262C" stroke-opacity=".09" stroke-width="1"/><line x1="0" y1="576" x2="800" y2="576" stroke="#20262C" stroke-opacity=".09" stroke-width="1"/><rect x="112" y="108" width="352" height="288" fill="none" opacity="1" stroke="#20262C" stroke-opacity=".35" stroke-width="2"/><rect x="176" y="168" width="224" height="168" fill="none" opacity="1" stroke="#20262C" stroke-opacity=".35" stroke-width="2"/><circle cx="288" cy="252" r="60" fill="none" stroke="#20262C" stroke-opacity=".38" stroke-width="2"/><line x1="112" y1="444" x2="463" y2="444" stroke="#E2622A" stroke-width="2"/><line x1="112" y1="426" x2="112" y2="462" stroke="#E2622A" stroke-width="2"/><line x1="463" y1="426" x2="463" y2="462" stroke="#E2622A" stroke-width="2"/><rect x="528" y="360" width="224" height="132" fill="none" opacity="1" stroke="#20262C" stroke-opacity=".35" stroke-width="2"/><rect width="800" height="600" fill="url(#l17)"/></svg>
